HIERARCHY
ROOT Hips
{
	OFFSET -3.958830 18.904000 13.208200
	CHANNELS 6 Xposition Yposition Zposition Zrotation Yrotation Xrotation 
	JOINT LHipJoint
	{
		OFFSET 0.000000 0.000000 0.000000
		CHANNELS 3 Zrotation Yrotation Xrotation
		JOINT LeftUpLeg
		{
			OFFSET 1.800000 -1.400000 0.085000
			CHANNELS 3 Zrotation Yrotation Xrotation
			JOINT LeftLeg
			{
				OFFSET 2.215000 -6.000000 0.000000
				CHANNELS 3 Zrotation Yrotation Xrotation
				JOINT LeftFoot
				{
					OFFSET 2.500000 -6.900000 0.000000
					CHANNELS 3 Zrotation Yrotation Xrotation
					JOINT LeftToeBase
					{
						OFFSET 0.200000 -0.500000 1.950000
						CHANNELS 3 Zrotation Yrotation Xrotation
						End Site
						{
							OFFSET 0.000000 0.000000 0.000000
						}
					}
				}
			}
		}
	}
	JOINT RHipJoint
	{
		OFFSET 0.000000 0.000000 0.000000
		CHANNELS 3 Zrotation Yrotation Xrotation
		JOINT RightUpLeg
		{
			OFFSET -1.800000 -1.400000 0.085000
			CHANNELS 3 Zrotation Yrotation Xrotation
			JOINT RightLeg
			{
				OFFSET -2.215000 -6.000000 0.000000
				CHANNELS 3 Zrotation Yrotation Xrotation
				JOINT RightFoot
				{
					OFFSET -2.500000 -6.900000 0.000000
					CHANNELS 3 Zrotation Yrotation Xrotation
					JOINT RightToeBase
					{
						OFFSET -0.200000 -0.500000 1.950000
						CHANNELS 3 Zrotation Yrotation Xrotation
						End Site
						{
							OFFSET 0.000000 0.000000 0.000000
						}
					}
				}
			}
		}
	}
	JOINT LowerBack
	{
		OFFSET 0.000000 0.000000 0.000000
		CHANNELS 3 Zrotation Yrotation Xrotation
		JOINT Spine
		{
			OFFSET -0.087000 1.940000 -0.288900
			CHANNELS 3 Zrotation Yrotation Xrotation
			JOINT Spine1
			{
				OFFSET 0.000000 1.950000 0.060000
				CHANNELS 3 Zrotation Yrotation Xrotation
				JOINT Neck
				{
					OFFSET 0.000000 0.000000 0.000000
					CHANNELS 3 Zrotation Yrotation Xrotation
					JOINT Neck1
					{
						OFFSET 0.000000 1.600000 0.340000
						CHANNELS 3 Zrotation Yrotation Xrotation
						JOINT Head
						{
							OFFSET 0.000000 1.667000 -0.240000
							CHANNELS 3 Zrotation Yrotation Xrotation
							End Site
							{
								OFFSET 0.000000 0.000000 0.000000
							}
						}
					}
				}
				JOINT LeftShoulder
				{
					OFFSET 0.000000 0.000000 0.000000
					CHANNELS 3 Zrotation Yrotation Xrotation
					JOINT LeftArm
					{
						OFFSET 2.700000 1.550000 -0.730000
						CHANNELS 3 Zrotation Yrotation Xrotation
						JOINT LeftForeArm
						{
							OFFSET 5.450000 0.000000 0.000000
							CHANNELS 3 Zrotation Yrotation Xrotation
							JOINT LeftHand
							{
								OFFSET 3.450000 0.000000 0.000000
								CHANNELS 3 Zrotation Yrotation Xrotation
								JOINT LeftHandIndex1
								{
									OFFSET 0.750000 0.000000 0.000000
									CHANNELS 3 Zrotation Yrotation Xrotation
									End Site
									{
										OFFSET 0.000000 0.000000 0.000000
									}
								}
							}
						}
					}
				}
				JOINT RightShoulder
				{
					OFFSET 0.000000 0.000000 0.000000
					CHANNELS 3 Zrotation Yrotation Xrotation
					JOINT RightArm
					{
						OFFSET -2.700000 1.550000 -0.730000
						CHANNELS 3 Zrotation Yrotation Xrotation
						JOINT RightForeArm
						{
							OFFSET -5.450000 0.000000 0.000000
							CHANNELS 3 Zrotation Yrotation Xrotation
							JOINT RightHand
							{
								OFFSET -3.450000 0.000000 0.000000
								CHANNELS 3 Zrotation Yrotation Xrotation
								JOINT RightHandIndex1
								{
									OFFSET -0.750000 0.000000 0.000000
									CHANNELS 3 Zrotation Yrotation Xrotation
									End Site
									{
										OFFSET 0.000000 0.000000 0.000000
									}
								}
							}
						}
					}
				}
			}
		}
	}
}
MOTION
Frames: 7
Frame Time: 0.016667
0.775440 16.630970 -1.541380 -18.588404 -39.567613 14.774198 -15.519681 9.674822 1.208599 9.728141 -2.046401 -7.701551 -6.977483 3.357684 -3.398707 -0.816040 4.233915 3.311706 0.450360 0.362450 0.369020 19.201881 -4.868100 9.481769 19.311322 51.590209 -82.564278 -8.119276 -0.061996 76.416062 -1.789712 -10.952490 0.633547 0.511000 0.581760 0.368910 -5.233476 -2.006223 -9.911046 28.527961 -7.663052 27.281320 -5.703416 4.372851 6.813861 -2.248211 -2.320208 -9.494532 -2.999407 4.413463 17.210905 -9.463230 6.939000 -9.144540 -3.760031 -10.543209 -0.264756 9.360913 -21.390153 -5.712366 57.383385 -16.572106 -10.181337 -4.443289 3.017493 0.162800 0.606080 -0.167870 0.215740 8.094702 9.017558 7.904940 46.341311 -9.592147 -10.439935 -28.511253 31.768571 -7.044396 1.647451 -1.825151 -0.341430 0.347270 0.011760 -0.150740 
0.770910 16.631420 -1.549170 -18.608077 -39.785700 13.544761 -15.530544 9.769877 1.235583 10.201851 -1.992386 -6.671596 -7.381132 3.568374 -2.879305 -0.761010 4.301830 3.277796 0.494010 0.404690 0.403740 19.162929 -4.936209 9.428919 18.857921 51.109836 -82.475175 -7.061345 -1.017864 76.678621 -1.835392 -10.978522 0.628608 0.511330 0.524500 0.359580 -5.213970 -2.052011 -9.886623 28.087063 -8.059994 28.966653 -5.676464 4.164472 6.654577 -2.266592 -2.528860 -9.442315 -3.402540 4.368001 17.537166 -9.101030 6.872730 -10.104920 -3.991195 -10.371623 -0.314772 8.421886 -21.233071 -5.945040 59.275400 -17.212144 -10.948688 -4.360658 3.028302 0.196770 0.547500 -0.122790 0.227460 8.347039 9.048542 7.873494 46.181996 -9.418764 -10.846118 -26.726793 33.765071 -7.030667 1.648426 -1.797518 -0.315610 0.331760 -0.029060 -0.149530 
0.763280 16.626070 -1.542190 -18.534823 -39.937425 12.409717 -15.512872 9.918523 1.246386 10.784599 -1.966848 -6.262365 -8.169526 3.980223 -1.312683 -0.707341 4.372333 3.243832 0.494590 0.408410 0.385330 19.129729 -5.119748 9.285711 18.068643 50.312874 -82.892351 -5.421369 -2.632809 77.153280 -1.878426 -11.110369 0.603056 0.487870 0.507250 0.354860 -5.229210 -2.046337 -9.792061 28.170521 -8.856365 29.933714 -6.402625 3.543738 6.174757 -2.142453 -3.007867 -9.158041 -4.333795 4.383330 18.099270 -8.611070 6.746520 -10.222480 -4.661910 -9.716054 -0.600451 6.467606 -21.895493 -6.042766 62.705743 -17.929215 -12.194852 -4.309605 3.036745 0.202040 0.515800 -0.108390 0.236270 8.705296 8.552420 7.604039 45.868322 -9.081948 -11.250153 -21.283857 37.319859 -6.243896 1.632347 -1.752625 -0.289980 0.318140 -0.036690 -0.131980 
0.750630 16.620630 -1.517920 -18.984284 -40.782362 12.443159 -15.472891 9.981501 1.233603 11.530646 -2.017616 -6.546590 -9.043238 4.391271 0.268450 -0.684515 4.437158 3.210762 0.505760 0.428250 0.360060 19.134358 -5.275136 9.164956 17.428893 49.893138 -82.847661 -3.064675 -4.530057 76.441603 -1.887397 -11.086709 0.621310 0.489530 0.507790 0.339540 -5.305729 -1.932741 -9.709461 29.151743 -9.365821 29.888859 -7.717155 3.259823 5.201254 -2.053161 -3.753262 -8.567099 -5.699645 4.572343 18.487461 -7.601860 6.391060 -10.220640 -5.341392 -8.010169 -1.239397 2.940221 -24.000216 -5.404331 66.598973 -19.543587 -14.150588 -4.254710 3.028798 0.204960 0.488900 -0.104940 0.256700 9.041316 7.130570 6.987109 45.454010 -8.902460 -11.380165 -14.191187 41.248755 -4.689899 1.618227 -1.738449 -0.279460 0.328080 -0.044020 -0.109910 
0.734450 16.606720 -1.494790 -19.162518 -41.512908 12.818683 -15.415789 10.059235 1.248230 12.071136 -2.125163 -7.629115 -9.828991 4.764956 1.940086 -0.687289 4.471452 3.187505 0.505140 0.434350 0.315870 19.140949 -5.506256 8.961529 16.074072 49.174019 -83.223448 0.391362 -6.845536 74.758196 -1.863695 -11.001987 0.656248 0.492510 0.535790 0.327380 -5.385989 -1.772437 -9.589181 30.123786 -9.478787 29.072033 -9.103574 2.950884 3.838498 -2.140170 -4.332339 -7.745090 -6.815067 4.641642 18.816431 -6.318020 5.815510 -9.664420 -5.366406 -5.459156 -2.009370 -1.760193 -27.029456 -3.876507 69.932569 -21.738890 -16.502784 -4.231255 3.022651 0.191320 0.483480 -0.126150 0.276560 9.007059 4.724695 5.961950 45.830052 -8.157271 -10.874494 -6.850714 43.828660 -2.552802 1.628285 -1.758829 -0.276080 0.342950 -0.034590 -0.084200 
0.727390 16.598690 -1.481550 -19.009977 -41.917532 12.508991 -15.377167 10.132840 1.242980 12.589559 -2.175047 -9.021324 -10.733836 5.309631 4.306031 -0.676185 4.530460 3.145080 0.492260 0.417410 0.285430 19.140267 -5.674130 8.837539 16.220784 47.052953 -80.930194 3.432147 -8.201212 70.454332 -1.731402 -10.400175 0.828045 0.472290 0.539390 0.315110 -5.471875 -1.644067 -9.494465 31.001693 -9.628663 28.703111 -10.448569 2.541692 2.953417 -2.201616 -4.799554 -7.231664 -7.864119 4.565931 19.585460 -5.323570 5.470220 -9.245780 -4.765718 -3.543976 -2.438245 -6.550262 -29.697474 -2.428011 71.923500 -23.823862 -18.845308 -4.193804 3.014095 0.194540 0.461140 -0.132910 0.282530 8.319304 2.825275 5.159792 47.919217 -7.067660 -10.651801 -1.882074 45.106600 -0.963526 1.666741 -1.771575 -0.271390 0.339820 -0.028320 -0.069340 
0.716390 16.604700 -1.470830 -19.147942 -43.331958 11.395864 -15.375238 10.122319 1.208643 13.738511 -2.096423 -9.513108 -12.039265 6.169201 6.975474 -0.617981 4.779440 3.025520 0.472780 0.391040 0.267060 19.134820 -5.693873 8.876020 18.513803 45.167024 -75.527248 5.396515 -8.468779 65.219482 -1.565711 -9.481694 1.107924 0.430780 0.513170 0.299800 -5.599739 -1.491409 -9.508954 31.594120 -9.637660 29.951358 -11.462691 2.602133 2.420639 -2.420378 -5.296616 -6.990775 -9.113141 4.394286 20.878491 -4.637760 5.238280 -9.843660 -4.206482 -2.372804 -2.583893 -10.969830 -31.506784 -1.382682 73.189316 -26.152916 -21.403065 -4.129297 2.969903 0.231890 0.412760 -0.109670 0.275490 7.966801 1.860280 4.641371 50.376552 -5.815325 -10.799946 0.117442 45.590536 -0.249153 1.708414 -1.729232 -0.262430 0.340180 -0.018670 -0.065860 
